<?xml version="1.0" standalone="no"?>
<!DOCTYPE svg PUBLIC "-//W3C//DTD SVG 20010904//EN"
 "http://www.w3.org/TR/2001/REC-SVG-20010904/DTD/svg10.dtd">
<svg version="1.0" xmlns="http://www.w3.org/2000/svg"
 width="192.000000pt" height="192.000000pt" viewBox="0 0 192.000000 192.000000"
 preserveAspectRatio="xMidYMid meet">
<metadata>
Created by potrace 1.16, written by Peter Selinger 2001-2019
</metadata>
<g transform="translate(0.000000,192.000000) scale(0.100000,-0.100000)"
fill="#000000" stroke="none">
<path d="M908 1568 c-17 -18 -47 -53 -67 -78 -20 -25 -42 -51 -49 -59 -16 -16
-93 -136 -111 -173 -8 -16 -18 -28 -22 -28 -4 0 -27 13 -51 28 -92 60 -161 77
-178 42 -31 -62 -59 -167 -67 -257 -5 -57 -8 -62 -27 -58 -12 2 -52 11 -91 20
-44 10 -102 15 -155 13 l-85 -3 -3 -76 c-7 -182 94 -410 253 -574 121 -126
224 -190 390 -246 l100 -34 215 0 215 0 100 34 c147 49 258 115 363 215 171
162 287 413 280 605 l-3 76 -85 3 c-53 2 -111 -3 -155 -13 -127 -29 -115 -31
-115 16 0 65 -37 214 -70 279 -13 27 -56 22 -128 -14 -39 -20 -73 -40 -77 -46
-11 -18 -31 -11 -46 18 -21 41 -100 166 -113 177 -6 6 -27 30 -47 55 -65 81
-97 110 -119 110 -12 0 -36 -15 -52 -32z m84 -105 c40 -44 132 -173 166 -233
l31 -55 -67 -67 c-37 -37 -87 -99 -112 -137 -25 -39 -47 -71 -50 -71 -3 0 -25
32 -50 71 -25 38 -75 100 -112 137 l-67 67 31 55 c51 91 180 260 198 260 3 0
18 -12 32 -27z m-456 -262 c131 -65 285 -222 353 -363 22 -47 22 -48 5 -110
-9 -35 -20 -83 -23 -108 l-6 -45 -34 50 c-79 115 -218 236 -333 289 l-56 27 5
77 c2 42 11 97 19 121 8 25 14 53 14 63 0 23 7 23 56 -1z m904 1 c0 -10 6 -38
14 -63 8 -24 17 -79 19 -121 l5 -77 -30 -10 c-49 -17 -167 -101 -240 -170 -96
-90 -183 -219 -228 -339 -15 -40 -24 -40 -40 -1 -11 25 -10 48 4 137 29 180
91 319 201 451 67 81 238 208 283 210 6 1 12 -7 12 -17z m-1170 -289 c200 -52
357 -158 480 -323 85 -115 131 -221 154 -357 l12 -73 -35 0 c-46 0 -173 25
-231 46 -156 55 -307 166 -405 299 -83 111 -144 259 -159 383 l-7 53 68 -7
c37 -3 93 -13 123 -21z m1564 -25 c-31 -259 -214 -513 -459 -636 -103 -52
-247 -92 -334 -92 l-33 0 7 68 c4 37 13 79 21 94 8 15 14 34 14 43 0 10 6 29
14 43 7 15 24 47 36 72 63 123 195 265 315 337 92 55 247 108 340 116 95 8 86
13 79 -45z"/>
</g>
</svg>
